# xmcd CD database file
#
# Track frame offsets:
#	150
#	20916
#	41485
#	62981
#	71578
#	92712
#	98958
#	120426
#	128214
#	153247
#	162368
#	183781
#	209991
#
# Disc length: 3279 seconds
#
# Revision: 1
# Processed by: cddbd v1.4PL0 Copyright (c) Steve Scherf et al.
# Submitted via: CDex 1.50
#
DISCID=b90ccd0d
DTITLE=café du sport - second service
DYEAR=2003
DGENRE=Jazz
TTITLE0=silverstring
TTITLE1=downhill
TTITLE2=butterfly
TTITLE3=rocket love
TTITLE4=erskomo
TTITLE5=speedmaster
TTITLE6=seamaster
TTITLE7=joysticks
TTITLE8=1st round
TTITLE9=playground
TTITLE10=out of the blue
TTITLE11=coast
TTITLE12=like eddie
EXTD=YEAR: 2003
EXTT0=
EXTT1=
EXTT2=
EXTT3=
EXTT4=
EXTT5=
EXTT6=
EXTT7=
EXTT8=
EXTT9=
EXTT10=
EXTT11=
EXTT12=
PLAYORDER=
